<svg viewBox="0 0 1260 322" xmlns="http://www.w3.org/2000/svg">
    <g transform="matrix(4.16667,0,0,4.16667,0.00152178,-3.38751)">
        <path d="M86.938,0.813C86.938,0.813 71.308,7.75 58.438,16.813C49.06,23.415 41.279,31.345 41.438,37.563C41.813,52.313 69.438,50.813 69.813,50.813C70.188,50.813 60.313,43.938 61.813,32.313C63.313,20.688 86.938,0.813 86.938,0.813Z" style="fill:rgb(212,37,38);fill-rule:nonzero;"/>
    </g>
    <g transform="matrix(4.16667,0,0,4.16667,0.00152178,-3.38751)">
        <path d="M85.563,1.813C85.563,1.813 70,7.75 60.171,16.813C53.009,23.415 47.066,31.345 47.187,37.563C47.473,52.313 69.651,50.813 69.938,50.813C70.224,50.813 61.603,43.938 62.748,32.313C63.894,20.688 85.563,1.813 85.563,1.813Z" style="fill:rgb(242,99,64);fill-rule:nonzero;"/>
    </g>
    <g transform="matrix(4.16667,0,0,4.16667,0.00152178,-3.38751)">
        <path d="M87.813,0.813C87.813,0.813 67.754,22.141 67.624,37.063C67.534,47.313 72.738,50.563 72.738,50.563C72.738,50.563 69.423,45.682 69.777,36.938C70.114,28.625 72.627,24.791 75.363,19.375C80.706,8.798 87.813,0.813 87.813,0.813Z" style="fill:rgb(199,137,135);fill-rule:nonzero;"/>
    </g>
    <g transform="matrix(4.16667,0,0,4.16667,0.00152178,-3.38751)">
        <path d="M36.188,34.813C36.188,34.813 30.813,22.938 19.313,22.938C7.812,22.938 0,34.313 0,42.25C0,50.188 6.812,58.438 16.063,59.813C23.119,60.862 41.938,59.938 41.938,59.938C41.938,59.938 20.313,60.688 20.313,47.563C20.313,32.663 36.188,34.813 36.188,34.813Z" style="fill:rgb(199,137,135);fill-rule:nonzero;"/>
    </g>
    <g transform="matrix(4.16667,0,0,4.16667,0.00152178,-3.38751)">
        <path d="M35.5,34.438C35.5,34.438 28.106,26.824 17.941,26.824C7.777,26.824 -0.062,33.125 0,43C0.044,50.059 6.893,58.396 15.068,59.62C21.305,60.551 37.938,59.73 37.938,59.73C37.938,59.73 19.374,60.383 18.824,48.724C18.063,32.563 35.5,34.438 35.5,34.438Z" style="fill:rgb(201,161,162);fill-rule:nonzero;"/>
    </g>
    <g transform="matrix(4.16667,0,0,4.16667,0.00152178,-3.38751)">
        <path d="M8.812,59.313C8.812,59.313 11.688,69.063 25.438,69.063C39.563,69.063 58.438,63.23 67.813,63.23C85.563,63.23 84.688,65.563 84.688,65.563C84.688,65.563 80.563,56.938 65.688,56.938C53.188,56.938 40.938,63.063 24.313,63.063C17.313,63.063 8.812,59.313 8.812,59.313Z" style="fill:rgb(199,137,135);fill-rule:nonzero;"/>
    </g>
    <g transform="matrix(4.16667,0,0,4.16667,0.00152178,-3.38751)">
        <path d="M31.563,71.313C31.563,71.313 33.158,78 45.066,78C57.298,78 71.261,73.128 79.38,73.128C94.752,73.128 96.375,74.969 96.375,74.969C96.375,74.969 90.944,66.938 78.063,66.938C67.238,66.938 61.813,70.813 44.813,72.063C38.766,72.507 31.563,71.313 31.563,71.313Z" style="fill:rgb(199,137,135);fill-rule:nonzero;"/>
    </g>
    <g transform="matrix(4.16667,0,0,4.16667,0.00152178,-3.38751)">
        <path d="M24.313,65.063C18.924,65.063 12.663,62.846 10.058,61.823C11.921,64.711 16.25,69.063 25.438,69.063C39.563,69.063 60.396,63.147 69.771,63.147C79.794,63.147 82.018,64.64 84.438,65.23C81.878,62.718 74.829,58.938 65.688,58.938C53.188,58.938 40.938,65.063 24.313,65.063Z" style="fill:rgb(201,161,162);fill-rule:nonzero;"/>
    </g>
    <g transform="matrix(4.16667,0,0,4.16667,0.00152178,-3.38751)">
        <path d="M25.021,65.354C19.632,65.354 13.371,63.137 10.766,62.114C12.629,65.002 16.958,69.354 26.146,69.354C40.271,69.354 59.688,63.272 69.063,63.272C80.604,63.272 82.021,64.647 84.604,65.313C82.045,62.801 75.537,59.229 66.396,59.229C53.896,59.229 41.646,65.354 25.021,65.354Z" style="fill:rgb(215,185,185);fill-rule:nonzero;"/>
    </g>
    <g transform="matrix(4.16667,0,0,4.16667,0.00152178,-3.38751)">
        <path d="M34.063,50.438C34.063,50.438 43.438,52.813 46.063,53.938C48.688,55.063 52.688,56.563 52.688,56.563C52.688,56.563 58.938,55.563 64.563,55.563C70.188,55.563 76.188,56.813 76.188,56.813L86.813,49.063C86.813,49.063 83.562,51.534 64.438,52.188C49.938,52.684 34.063,50.438 34.063,50.438Z" style="fill:rgb(199,137,135);fill-rule:nonzero;"/>
    </g>
    <g transform="matrix(4.16667,0,0,4.16667,0.00152178,-3.38751)">
        <path d="M44.813,74.063C40.248,74.399 35.029,73.8 32.742,73.487C34.278,75.44 37.696,78 45.066,78C57.298,78 71.261,73.128 79.38,73.128C86.889,73.128 91.112,73.568 93.473,74.017C90.645,71.725 85.657,68.938 78.063,68.938C67.238,68.938 61.813,72.813 44.813,74.063Z" style="fill:rgb(215,185,185);fill-rule:nonzero;"/>
    </g>
    <g transform="matrix(4.16667,0,0,4.16667,0.00152178,-3.38751)">
        <path d="M9.312,57.188C9.312,57.188 -2.396,52.078 0.687,37.313C2.437,28.938 11.75,25 20.563,26.563C28.672,28.001 35.688,34.438 35.688,34.438C35.688,34.438 28.063,32.188 21.563,33.688C12.857,35.697 11.313,42.313 11.313,42.313C11.313,42.313 11.688,36.313 15.813,33.563C19.637,31.014 21.313,31.188 21.313,31.188C21.313,31.188 6.562,32.813 7.312,44.563C7.615,49.307 10.258,53.329 14.813,55.938C21.538,59.792 34.688,59.938 34.688,59.938C34.688,59.938 6.437,61.546 5.562,43.188C5.062,32.688 11.563,30.938 11.563,30.938C11.563,30.938 1.835,33.485 1.937,41.563C2.062,51.438 9.312,57.188 9.312,57.188Z" style="fill:rgb(215,185,185);fill-rule:nonzero;"/>
    </g>
    <g transform="matrix(4.16667,0,0,4.16667,0.00152178,-3.38751)">
        <path d="M26.795,66.092C43.416,66.449 55.795,60.575 68.292,60.856C77.479,61.063 84.464,65.404 84.604,65.438C82.187,62.563 74.829,58.938 65.688,58.938C53.188,58.938 40.938,65.063 24.313,65.063C21.343,65.063 18.111,64.389 15.369,63.614C18.45,64.719 22.842,66.007 26.795,66.092Z" style="fill:rgb(201,161,162);fill-rule:nonzero;"/>
    </g>
    <g transform="matrix(4.16667,0,0,4.16667,0.00152178,-3.38751)">
        <path d="M116.736,32.932C116.605,32.317 116.466,31.635 116.317,30.887C116.167,30.138 116.015,29.346 115.86,28.51C115.705,27.674 115.546,26.803 115.385,25.895C115.223,24.989 115.064,24.069 114.909,23.136L114.854,23.136C113.958,24.989 113.16,26.75 112.458,28.421C111.755,30.093 111.131,31.631 110.584,33.036C111.653,33.01 112.688,32.991 113.688,32.975C114.688,32.959 115.705,32.946 116.736,32.932ZM108.925,37.5C108.701,38.134 108.507,38.685 108.342,39.155C108.178,39.623 108.033,40.033 107.909,40.38C107.785,40.728 107.676,41.028 107.583,41.28C107.49,41.532 107.402,41.76 107.322,41.965C107.222,42.201 107.11,42.384 106.986,42.515C106.862,42.645 106.729,42.74 106.585,42.799C106.442,42.858 106.287,42.892 106.12,42.902C105.952,42.911 105.774,42.915 105.588,42.915C105.482,42.915 105.351,42.915 105.192,42.911C105.034,42.908 104.889,42.903 104.759,42.897L104.628,42.804C105.374,41.188 106.081,39.644 106.749,38.171C107.417,36.699 108.062,35.288 108.683,33.94C108.552,33.735 108.487,33.563 108.487,33.426C108.487,33.178 108.686,33.051 109.083,33.044C110.221,30.546 111.233,28.345 112.122,26.44C113.011,24.536 113.794,22.944 114.471,21.664C114.533,21.545 114.614,21.448 114.713,21.371C114.813,21.292 114.921,21.232 115.04,21.188C115.158,21.145 115.282,21.114 115.413,21.095C115.543,21.076 115.67,21.067 115.795,21.067C115.975,21.067 116.152,21.082 116.326,21.114C116.5,21.145 116.687,21.204 116.885,21.29C117.277,23.448 117.636,25.387 117.962,27.112C118.288,28.836 118.591,30.373 118.871,31.721C119.15,33.069 119.415,34.246 119.663,35.248C119.912,36.252 120.151,37.114 120.381,37.831C120.61,38.548 120.84,39.141 121.07,39.607C121.3,40.073 121.538,40.44 121.784,40.707C122.029,40.974 122.289,41.161 122.562,41.266C122.835,41.372 123.133,41.424 123.457,41.424C123.668,41.424 123.882,41.4 124.1,41.35C124.317,41.3 124.557,41.229 124.817,41.135L125.079,41.9C124.364,42.253 123.68,42.524 123.028,42.71C122.375,42.897 121.797,42.991 121.294,42.991C121.008,42.991 120.74,42.937 120.488,42.832C120.236,42.726 119.994,42.544 119.761,42.287C119.528,42.029 119.301,41.682 119.081,41.248C118.86,40.812 118.638,40.265 118.414,39.607C118.19,38.948 117.96,38.164 117.724,37.253C117.488,36.343 117.24,35.285 116.979,34.079C115.829,34.092 114.693,34.118 113.572,34.159C112.45,34.2 111.29,34.253 110.09,34.322C109.848,34.961 109.629,35.549 109.433,36.083C109.237,36.618 109.068,37.09 108.925,37.5Z" style="fill:rgb(242,99,63);fill-rule:nonzero;"/>
    </g>
    <g transform="matrix(4.16667,0,0,4.16667,0.00152178,-3.38751)">
        <path d="M135.556,21.29C135.978,23.448 136.362,25.387 136.707,27.112C137.052,28.836 137.369,30.373 137.657,31.721C137.946,33.069 138.213,34.246 138.459,35.248C138.705,36.252 138.942,37.114 139.172,37.831C139.402,38.548 139.629,39.141 139.853,39.607C140.076,40.073 140.308,40.44 140.547,40.707C140.786,40.974 141.041,41.161 141.312,41.266C141.582,41.372 141.881,41.424 142.211,41.424C142.422,41.424 142.632,41.403 142.84,41.359C143.048,41.316 143.283,41.25 143.544,41.164L143.805,41.927C143.09,42.282 142.417,42.547 141.787,42.724C141.156,42.902 140.589,42.991 140.085,42.991C139.793,42.991 139.52,42.936 139.265,42.827C139.01,42.718 138.765,42.526 138.529,42.249C138.293,41.973 138.063,41.601 137.839,41.135C137.616,40.669 137.389,40.079 137.159,39.365C136.929,38.65 136.688,37.795 136.437,36.801C136.185,35.807 135.917,34.648 135.635,33.325C135.352,32 135.046,30.497 134.717,28.813C134.387,27.129 134.027,25.237 133.635,23.136L133.58,23.136C133.076,24.206 132.566,25.307 132.051,26.44C131.535,27.575 131.035,28.704 130.55,29.829C130.065,30.954 129.612,32.055 129.188,33.133C128.767,34.211 128.397,35.231 128.08,36.191C127.763,37.151 127.513,38.035 127.33,38.842C127.146,39.65 127.055,40.346 127.055,40.93C127.055,41.322 127.106,41.68 127.208,42.007C127.311,42.333 127.493,42.602 127.754,42.813L127.726,42.925C127.533,43.005 127.333,43.07 127.125,43.116C126.917,43.163 126.707,43.186 126.496,43.186C126.278,43.186 126.068,43.158 125.866,43.102C125.664,43.046 125.484,42.956 125.326,42.832C125.167,42.707 125.042,42.544 124.948,42.342C124.855,42.14 124.808,41.89 124.808,41.592C124.808,41.269 124.898,40.786 125.079,40.143C125.259,39.499 125.518,38.72 125.857,37.803C126.196,36.886 126.609,35.845 127.097,34.68C127.584,33.515 128.136,32.249 128.756,30.882C129.373,29.515 130.05,28.056 130.787,26.506C131.524,24.956 132.312,23.335 133.151,21.645C133.213,21.521 133.293,21.421 133.393,21.347C133.492,21.272 133.6,21.213 133.715,21.169C133.83,21.126 133.952,21.098 134.083,21.085C134.213,21.074 134.341,21.067 134.465,21.067C134.645,21.067 134.822,21.082 134.996,21.114C135.17,21.145 135.356,21.204 135.556,21.29Z" style="fill:rgb(242,99,63);fill-rule:nonzero;"/>
    </g>
    <g transform="matrix(4.16667,0,0,4.16667,0.00152178,-3.38751)">
        <path d="M163.576,21.337C163.476,22.418 163.388,23.45 163.314,24.432C163.24,25.415 163.175,26.365 163.123,27.284C163.07,28.204 163.029,29.098 162.998,29.969C162.966,30.838 162.939,31.703 162.917,32.56C162.896,33.417 162.882,34.275 162.876,35.132C162.869,35.99 162.867,36.863 162.867,37.751C162.867,38.411 162.896,38.973 162.955,39.439C163.013,39.905 163.113,40.286 163.253,40.581C163.394,40.875 163.582,41.092 163.818,41.229C164.054,41.366 164.349,41.434 164.703,41.434C164.957,41.434 165.222,41.414 165.496,41.373C165.769,41.332 166.107,41.238 166.511,41.088L166.773,41.853C166.324,42.045 165.908,42.213 165.523,42.356C165.138,42.499 164.779,42.618 164.447,42.71C164.115,42.804 163.804,42.873 163.519,42.92C163.234,42.967 162.96,42.991 162.699,42.991C162.183,42.991 161.783,42.865 161.496,42.613C161.21,42.361 160.998,42.011 160.857,41.564C160.718,41.117 160.632,40.587 160.601,39.975C160.57,39.363 160.554,38.697 160.554,37.975C160.554,37.012 160.56,36.039 160.574,35.053C160.585,34.069 160.605,33.09 160.628,32.118C160.654,31.145 160.685,30.188 160.722,29.247C160.759,28.305 160.798,27.397 160.839,26.524C160.88,25.651 160.923,24.822 160.97,24.036C161.017,23.249 161.064,22.521 161.115,21.85C161.121,21.713 161.162,21.597 161.24,21.5C161.318,21.404 161.416,21.324 161.533,21.258C161.652,21.193 161.785,21.145 161.935,21.114C162.083,21.082 162.232,21.067 162.382,21.067C162.562,21.067 162.755,21.09 162.964,21.137C163.173,21.184 163.376,21.25 163.576,21.337ZM148.344,31.889C148.313,32.79 148.284,33.686 148.255,34.579C148.228,35.469 148.2,36.324 148.172,37.141C148.144,37.958 148.121,38.716 148.102,39.415C148.083,40.115 148.067,40.722 148.055,41.238C148.969,41.605 149.842,41.788 150.674,41.788C151.401,41.788 152.048,41.653 152.613,41.382C153.179,41.112 153.658,40.741 154.048,40.268C154.441,39.796 154.738,39.24 154.939,38.6C155.14,37.96 155.242,37.27 155.242,36.531C155.242,35.636 155.115,34.881 154.859,34.266C154.605,33.651 154.259,33.151 153.82,32.765C153.382,32.379 152.868,32.102 152.278,31.93C151.687,31.76 151.053,31.674 150.376,31.674C149.736,31.674 149.059,31.747 148.344,31.889ZM148.354,30.901C148.801,30.807 149.265,30.733 149.747,30.677C150.229,30.622 150.712,30.593 151.196,30.593C151.75,30.593 152.295,30.633 152.832,30.714C153.37,30.795 153.878,30.926 154.361,31.106C154.843,31.286 155.287,31.522 155.695,31.815C156.101,32.106 156.453,32.461 156.751,32.881C157.05,33.301 157.283,33.793 157.451,34.359C157.619,34.924 157.703,35.567 157.703,36.289C157.703,37.37 157.511,38.324 157.128,39.15C156.748,39.976 156.232,40.67 155.582,41.233C154.933,41.795 154.177,42.22 153.317,42.505C152.456,42.791 151.547,42.934 150.59,42.934C150.106,42.934 149.633,42.894 149.174,42.813C148.714,42.732 148.251,42.621 147.785,42.478L145.809,42.85L145.641,42.832C145.685,41.689 145.727,40.582 145.767,39.513C145.807,38.445 145.845,37.399 145.879,36.376C145.913,35.355 145.945,34.344 145.977,33.348C146.008,32.35 146.033,31.348 146.051,30.341C146.07,29.334 146.085,28.316 146.098,27.284C146.11,26.252 146.116,25.19 146.116,24.096C146.116,23.804 146.101,23.554 146.07,23.346C146.039,23.138 145.974,22.969 145.874,22.838C145.774,22.707 145.632,22.613 145.445,22.554C145.259,22.495 145.013,22.465 144.709,22.465C144.504,22.465 144.252,22.476 143.954,22.498C143.656,22.519 143.345,22.555 143.022,22.605L142.929,21.832C143.842,21.595 144.626,21.421 145.282,21.31C145.938,21.198 146.48,21.142 146.909,21.142C147.319,21.142 147.636,21.196 147.859,21.305C148.083,21.414 148.248,21.57 148.354,21.775C148.459,21.981 148.521,22.229 148.54,22.521C148.559,22.813 148.568,23.145 148.568,23.519C148.568,23.643 148.562,23.919 148.549,24.348C148.537,24.777 148.52,25.317 148.498,25.969C148.476,26.623 148.453,27.37 148.428,28.211C148.403,29.053 148.378,29.95 148.354,30.901Z" style="fill:rgb(242,99,63);fill-rule:nonzero;"/>
    </g>
    <g transform="matrix(4.16667,0,0,4.16667,0.00152178,-3.38751)">
        <path d="M169.606,24.049C169.606,23.789 169.585,23.565 169.545,23.378C169.504,23.192 169.43,23.041 169.322,22.927C169.212,22.811 169.062,22.728 168.87,22.675C168.676,22.623 168.428,22.596 168.124,22.596C167.924,22.596 167.701,22.607 167.453,22.628C167.204,22.65 166.921,22.68 166.604,22.717L166.501,21.85C167.111,21.757 167.676,21.674 168.198,21.603C168.72,21.532 169.209,21.469 169.667,21.416C170.123,21.364 170.55,21.325 170.948,21.3C171.345,21.275 171.721,21.263 172.076,21.263C173.057,21.263 173.988,21.255 174.868,21.24C175.747,21.224 176.527,21.208 177.207,21.193C177.887,21.177 178.447,21.162 178.885,21.147C179.323,21.131 179.591,21.123 179.691,21.123C179.977,21.123 180.196,21.19 180.348,21.324C180.5,21.457 180.577,21.664 180.577,21.943C180.577,22.055 180.566,22.273 180.544,22.596C180.522,22.919 180.494,23.29 180.46,23.709C180.426,24.129 180.387,24.572 180.343,25.038C180.3,25.504 180.253,25.939 180.204,26.342L179.309,26.315C179.321,26.079 179.331,25.858 179.336,25.653C179.343,25.448 179.346,25.255 179.346,25.075C179.346,24.553 179.315,24.129 179.253,23.803C179.191,23.477 179.078,23.22 178.913,23.034C178.748,22.847 178.523,22.72 178.237,22.651C177.951,22.583 177.587,22.546 177.146,22.54C176.531,22.534 175.991,22.529 175.525,22.526C175.058,22.523 174.611,22.521 174.182,22.521L173.688,22.521C173.452,22.521 173.211,22.523 172.966,22.526C172.72,22.529 172.423,22.537 172.076,22.549C172.063,23.065 172.049,23.641 172.034,24.278C172.018,24.915 172.001,25.597 171.983,26.325C171.964,27.051 171.944,27.819 171.922,28.626C171.9,29.434 171.876,30.267 171.852,31.124C172.654,31.162 173.365,31.188 173.987,31.204C174.608,31.219 175.183,31.227 175.711,31.227C176.351,31.227 176.918,31.207 177.412,31.166C177.906,31.125 178.374,31.063 178.815,30.975C178.915,31.248 178.964,31.495 178.964,31.711C178.964,31.892 178.908,32.044 178.796,32.168C178.684,32.293 178.526,32.393 178.321,32.471C178.116,32.549 177.867,32.605 177.575,32.639C177.283,32.673 176.957,32.69 176.596,32.69C175.957,32.69 175.231,32.655 174.42,32.582C173.609,32.512 172.741,32.423 171.815,32.317C171.802,32.678 171.787,33.112 171.768,33.618C171.75,34.124 171.728,34.664 171.703,35.235C171.678,35.807 171.648,36.392 171.615,36.992C171.581,37.592 171.545,38.166 171.512,38.716C171.478,39.266 171.44,39.77 171.4,40.226C171.36,40.683 171.318,41.058 171.274,41.35C171.876,41.263 172.464,41.199 173.036,41.159C173.608,41.119 174.126,41.098 174.592,41.098C175.245,41.098 175.855,41.116 176.424,41.149C176.993,41.183 177.556,41.201 178.116,41.201C178.489,41.201 178.816,41.149 179.099,41.046C179.382,40.944 179.628,40.761 179.84,40.497C180.051,40.233 180.227,39.877 180.367,39.429C180.506,38.982 180.617,38.414 180.698,37.724L181.537,37.77C181.518,38.814 181.444,39.675 181.313,40.352C181.182,41.03 181,41.564 180.768,41.956C180.535,42.347 180.25,42.619 179.915,42.771C179.58,42.923 179.2,42.999 178.778,42.999C178.442,42.999 178.072,42.968 177.668,42.907C177.264,42.844 176.823,42.774 176.345,42.697C175.866,42.619 175.349,42.549 174.792,42.487C174.237,42.425 173.638,42.394 172.999,42.394C172.433,42.394 171.81,42.429 171.129,42.5C170.449,42.572 169.751,42.692 169.037,42.86L168.87,42.841C168.962,42.22 169.044,41.468 169.117,40.585C169.188,39.703 169.251,38.739 169.307,37.691C169.364,36.644 169.41,35.54 169.447,34.377C169.485,33.215 169.515,32.042 169.541,30.859C169.565,29.675 169.583,28.504 169.591,27.344C169.601,26.186 169.606,25.087 169.606,24.049Z" style="fill:rgb(242,99,63);fill-rule:nonzero;"/>
    </g>
    <g transform="matrix(4.16667,0,0,4.16667,0.00152178,-3.38751)">
        <path d="M195.192,23.928C195.192,23.649 195.161,23.422 195.098,23.248C195.037,23.074 194.948,22.939 194.833,22.843C194.717,22.747 194.58,22.68 194.417,22.642C194.256,22.605 194.08,22.586 193.886,22.586C193.775,22.586 193.667,22.588 193.565,22.591C193.462,22.594 193.346,22.6 193.215,22.61C193.085,22.619 192.934,22.633 192.763,22.651C192.592,22.67 192.382,22.692 192.134,22.717L192.032,21.869C193.25,21.682 194.314,21.535 195.224,21.426C196.134,21.317 196.95,21.263 197.671,21.263C199.311,21.263 200.757,21.257 202.01,21.244C203.262,21.232 204.333,21.218 205.226,21.202C206.118,21.187 206.839,21.173 207.393,21.16C207.946,21.148 208.343,21.142 208.586,21.142C208.921,21.142 209.166,21.223 209.318,21.384C209.47,21.545 209.546,21.775 209.546,22.074C209.546,22.198 209.532,22.453 209.504,22.838C209.476,23.224 209.44,23.721 209.397,24.33C209.353,24.938 209.307,25.653 209.257,26.473C209.208,27.293 209.161,28.2 209.118,29.19C209.074,30.182 209.038,31.253 209.01,32.407C208.982,33.559 208.968,34.772 208.968,36.046C208.968,36.878 208.985,37.588 209.019,38.176C209.053,38.763 209.106,39.257 209.178,39.658C209.25,40.059 209.337,40.375 209.444,40.609C209.549,40.841 209.675,41.02 209.821,41.145C209.967,41.269 210.13,41.348 210.31,41.382C210.491,41.416 210.689,41.434 210.907,41.434C211.038,41.434 211.164,41.429 211.285,41.419C211.406,41.411 211.535,41.395 211.671,41.373C211.808,41.351 211.956,41.317 212.114,41.27C212.273,41.224 212.455,41.164 212.66,41.088L212.92,41.853C212.087,42.226 211.342,42.508 210.683,42.702C210.025,42.894 209.431,42.991 208.903,42.991C208.635,42.991 208.396,42.968 208.185,42.925C207.974,42.881 207.786,42.789 207.622,42.645C207.457,42.502 207.315,42.292 207.197,42.016C207.079,41.74 206.983,41.367 206.908,40.898C206.833,40.428 206.778,39.849 206.741,39.16C206.704,38.469 206.684,37.637 206.684,36.662C206.684,35.586 206.692,34.54 206.708,33.525C206.723,32.508 206.745,31.545 206.773,30.635C206.801,29.725 206.829,28.881 206.857,28.104C206.885,27.328 206.913,26.641 206.941,26.044C206.969,25.448 206.991,24.956 207.006,24.567C207.022,24.178 207.03,23.915 207.03,23.78C207.03,23.587 207.014,23.411 206.983,23.253C206.952,23.094 206.891,22.961 206.801,22.852C206.71,22.743 206.586,22.66 206.428,22.6C206.27,22.541 206.06,22.512 205.799,22.512C205.513,22.512 205.159,22.513 204.737,22.517C204.314,22.519 203.783,22.523 203.142,22.526C202.502,22.529 201.737,22.532 200.845,22.535C199.953,22.539 198.895,22.54 197.671,22.54C197.659,23.112 197.641,23.815 197.62,24.651C197.598,25.487 197.573,26.424 197.545,27.461C197.517,28.498 197.485,29.618 197.448,30.817C197.41,32.016 197.373,33.262 197.335,34.555C197.298,35.847 197.257,37.17 197.214,38.526C197.17,39.88 197.127,41.229 197.083,42.571L194.875,42.85L194.707,42.832C194.782,41.048 194.848,39.355 194.908,37.751C194.966,36.149 195.017,34.584 195.061,33.059C195.104,31.534 195.137,30.023 195.159,28.528C195.18,27.034 195.192,25.5 195.192,23.928Z" style="fill:rgb(242,99,63);fill-rule:nonzero;"/>
    </g>
    <g transform="matrix(4.16667,0,0,4.16667,0.00152178,-3.38751)">
        <path d="M223.743,32.932C223.612,32.317 223.472,31.635 223.323,30.887C223.174,30.138 223.022,29.346 222.867,28.51C222.71,27.674 222.552,26.803 222.391,25.895C222.229,24.989 222.071,24.069 221.916,23.136L221.86,23.136C220.964,24.989 220.167,26.75 219.464,28.421C218.762,30.093 218.137,31.631 217.59,33.036C218.66,33.01 219.694,32.991 220.695,32.975C221.695,32.959 222.71,32.946 223.743,32.932ZM215.931,37.5C215.708,38.134 215.513,38.685 215.349,39.155C215.184,39.623 215.04,40.033 214.916,40.38C214.792,40.728 214.682,41.028 214.589,41.28C214.496,41.532 214.409,41.76 214.329,41.965C214.229,42.201 214.117,42.384 213.993,42.515C213.869,42.645 213.735,42.74 213.592,42.799C213.449,42.858 213.293,42.892 213.125,42.902C212.958,42.911 212.781,42.915 212.594,42.915C212.489,42.915 212.357,42.915 212.199,42.911C212.04,42.908 211.895,42.903 211.765,42.897L211.634,42.804C212.38,41.188 213.086,39.644 213.755,38.171C214.423,36.699 215.068,35.288 215.689,33.94C215.558,33.735 215.494,33.563 215.494,33.426C215.494,33.178 215.692,33.051 216.09,33.044C217.227,30.546 218.24,28.345 219.128,26.44C220.017,24.536 220.8,22.944 221.477,21.664C221.54,21.545 221.621,21.448 221.72,21.371C221.819,21.292 221.928,21.232 222.046,21.188C222.164,21.145 222.289,21.114 222.418,21.095C222.549,21.076 222.676,21.067 222.801,21.067C222.981,21.067 223.159,21.082 223.333,21.114C223.506,21.145 223.693,21.204 223.892,21.29C224.283,23.448 224.642,25.387 224.968,27.112C225.294,28.836 225.597,30.373 225.877,31.721C226.157,33.069 226.42,34.246 226.669,35.248C226.917,36.252 227.157,37.114 227.387,37.831C227.617,38.548 227.847,39.141 228.077,39.607C228.307,40.073 228.544,40.44 228.79,40.707C229.036,40.974 229.294,41.161 229.568,41.266C229.841,41.372 230.14,41.424 230.463,41.424C230.674,41.424 230.888,41.4 231.106,41.35C231.324,41.3 231.563,41.229 231.824,41.135L232.084,41.9C231.371,42.253 230.687,42.524 230.035,42.71C229.381,42.897 228.804,42.991 228.3,42.991C228.014,42.991 227.746,42.937 227.495,42.832C227.243,42.726 227,42.544 226.767,42.287C226.535,42.029 226.307,41.682 226.086,41.248C225.866,40.812 225.644,40.265 225.42,39.607C225.197,38.948 224.966,38.164 224.731,37.253C224.495,36.343 224.246,35.285 223.985,34.079C222.835,34.092 221.7,34.118 220.578,34.159C219.457,34.2 218.295,34.253 217.096,34.322C216.854,34.961 216.635,35.549 216.439,36.083C216.244,36.618 216.075,37.09 215.931,37.5Z" style="fill:rgb(242,99,63);fill-rule:nonzero;"/>
    </g>
    <g transform="matrix(4.16667,0,0,4.16667,0.00152178,-3.38751)">
        <path d="M234.34,24.049C234.34,23.789 234.319,23.565 234.275,23.378C234.232,23.192 234.156,23.04 234.047,22.922C233.938,22.804 233.788,22.717 233.595,22.661C233.402,22.605 233.157,22.577 232.859,22.577C232.449,22.577 231.923,22.623 231.284,22.717L231.171,21.887C231.755,21.782 232.394,21.673 233.086,21.561C233.78,21.449 234.491,21.347 235.221,21.253C235.952,21.16 236.685,21.084 237.421,21.025C238.158,20.966 238.865,20.937 239.542,20.937C240.437,20.937 241.277,21.018 242.063,21.179C242.849,21.34 243.536,21.616 244.123,22.004C244.71,22.392 245.174,22.913 245.516,23.565C245.858,24.217 246.029,25.032 246.029,26.007C246.029,27.145 245.838,28.165 245.456,29.069C245.074,29.973 244.538,30.739 243.848,31.367C243.159,31.995 242.331,32.475 241.364,32.807C240.398,33.139 239.331,33.305 238.163,33.305C237.901,33.305 237.718,33.265 237.612,33.184C237.506,33.104 237.454,32.93 237.454,32.663L237.454,32.541C237.454,32.479 237.457,32.432 237.463,32.401C238.376,32.401 239.161,32.307 239.817,32.118C240.472,31.928 241.024,31.676 241.471,31.362C241.918,31.048 242.276,30.691 242.543,30.29C242.81,29.889 243.015,29.476 243.159,29.051C243.301,28.625 243.394,28.204 243.438,27.788C243.481,27.372 243.503,26.995 243.503,26.66C243.503,25.758 243.377,25.008 243.125,24.409C242.874,23.809 242.532,23.332 242.1,22.978C241.668,22.623 241.164,22.373 240.585,22.228C240.007,22.082 239.392,22.008 238.74,22.008C238.411,22.008 238.095,22.021 237.794,22.046C237.493,22.071 237.165,22.105 236.811,22.148C236.798,22.627 236.781,23.267 236.759,24.069C236.738,24.87 236.712,25.791 236.685,26.832C236.657,27.873 236.625,29.013 236.587,30.252C236.549,31.493 236.512,32.788 236.475,34.139C236.438,35.491 236.397,36.88 236.354,38.306C236.31,39.733 236.267,41.154 236.223,42.571L234.014,42.85L233.846,42.832C233.921,41.048 233.99,39.358 234.051,37.761C234.114,36.165 234.165,34.609 234.206,33.096C234.246,31.582 234.279,30.084 234.303,28.603C234.328,27.122 234.34,25.604 234.34,24.049Z" style="fill:rgb(242,99,63);fill-rule:nonzero;"/>
    </g>
    <g transform="matrix(4.16667,0,0,4.16667,0.00152178,-3.38751)">
        <path d="M249.832,38.022C249.826,38.109 249.821,38.182 249.818,38.241C249.815,38.3 249.813,38.371 249.813,38.451C249.813,38.955 249.869,39.405 249.981,39.802C250.092,40.2 250.266,40.536 250.502,40.809C250.739,41.082 251.041,41.29 251.407,41.434C251.774,41.577 252.211,41.648 252.721,41.648C253.044,41.648 253.358,41.608 253.663,41.527C253.967,41.446 254.264,41.306 254.553,41.107C254.841,40.909 255.127,40.643 255.411,40.31C255.693,39.978 255.977,39.557 256.263,39.047C255.94,38.227 255.59,37.369 255.214,36.47C254.838,35.572 254.452,34.665 254.054,33.748C253.657,32.832 253.254,31.921 252.847,31.017C252.44,30.114 252.045,29.249 251.664,28.426C251.281,27.602 250.916,26.832 250.568,26.114C250.22,25.397 249.907,24.764 249.626,24.217C249.458,23.895 249.305,23.623 249.166,23.402C249.026,23.182 248.874,23.004 248.708,22.871C248.543,22.738 248.353,22.642 248.135,22.586C247.917,22.53 247.647,22.502 247.325,22.502C247.088,22.502 246.854,22.513 246.621,22.535C246.387,22.557 246.131,22.593 245.852,22.642L245.75,21.813C246.594,21.595 247.354,21.418 248.028,21.282C248.703,21.145 249.263,21.076 249.71,21.076C249.816,21.076 249.934,21.085 250.065,21.105C250.195,21.123 250.331,21.166 250.47,21.235C250.61,21.303 250.751,21.406 250.894,21.542C251.038,21.679 251.174,21.866 251.304,22.102C251.459,22.394 251.651,22.771 251.877,23.234C252.104,23.698 252.355,24.217 252.628,24.795C252.902,25.373 253.19,25.993 253.495,26.655C253.799,27.317 254.109,27.997 254.422,28.696C254.736,29.395 255.048,30.096 255.359,30.798C255.669,31.5 255.965,32.179 256.245,32.834C256.523,33.491 256.784,34.109 257.023,34.69C257.262,35.271 257.467,35.789 257.643,36.242C257.971,35.409 258.303,34.493 258.64,33.493C258.976,32.492 259.308,31.395 259.637,30.202C259.966,29.008 260.29,27.714 260.607,26.319C260.923,24.924 261.228,23.415 261.519,21.794C261.545,21.651 261.596,21.532 261.674,21.435C261.751,21.339 261.845,21.26 261.954,21.198C262.062,21.135 262.182,21.092 262.313,21.067C262.443,21.042 262.574,21.03 262.705,21.03C262.965,21.03 263.228,21.075 263.492,21.165C263.755,21.255 263.987,21.369 264.186,21.505C263.565,23.605 262.956,25.581 262.359,27.428C261.762,29.278 261.18,30.98 260.612,32.537C260.042,34.093 259.489,35.491 258.953,36.731C258.415,37.971 257.89,39.032 257.381,39.915C257.078,40.449 256.751,40.937 256.403,41.377C256.055,41.819 255.669,42.198 255.248,42.515C254.825,42.832 254.36,43.079 253.854,43.256C253.347,43.433 252.787,43.522 252.171,43.522C251.706,43.522 251.264,43.489 250.848,43.423C250.431,43.359 250.066,43.275 249.752,43.172C249.439,43.07 249.19,42.956 249.006,42.832C248.824,42.707 248.732,42.583 248.732,42.458C248.732,42.266 248.737,41.999 248.746,41.658C248.755,41.316 248.767,40.937 248.783,40.52C248.798,40.104 248.816,39.673 248.834,39.229C248.853,38.785 248.872,38.367 248.89,37.975L249.832,38.022Z" style="fill:rgb(242,99,63);fill-rule:nonzero;"/>
    </g>
    <g transform="matrix(4.16667,0,0,4.16667,0.00152178,-3.38751)">
        <path d="M275.792,20.647C276.606,20.647 277.359,20.722 278.052,20.871C278.745,21.021 279.343,21.204 279.846,21.421C280.35,21.639 280.745,21.873 281.03,22.121C281.316,22.369 281.458,22.596 281.458,22.801C281.458,23.229 281.443,23.786 281.413,24.469C281.381,25.153 281.34,25.979 281.292,26.949L280.48,26.92C280.486,26.833 280.491,26.751 280.495,26.674C280.498,26.596 280.499,26.514 280.499,26.426C280.493,25.998 280.445,25.589 280.354,25.202C280.264,24.813 280.101,24.442 279.865,24.086C279.617,23.733 279.32,23.419 278.975,23.145C278.63,22.873 278.252,22.642 277.842,22.457C277.432,22.269 276.994,22.128 276.528,22.032C276.062,21.936 275.586,21.887 275.102,21.887C274.269,21.887 273.512,22.016 272.833,22.274C272.152,22.532 271.544,22.889 271.01,23.346C270.475,23.803 270.011,24.343 269.617,24.967C269.222,25.592 268.896,26.272 268.638,27.004C268.379,27.738 268.187,28.508 268.06,29.317C267.932,30.123 267.869,30.942 267.869,31.768C267.869,32.743 267.95,33.663 268.111,34.527C268.273,35.391 268.502,36.186 268.801,36.913C269.099,37.64 269.459,38.292 269.882,38.871C270.304,39.448 270.779,39.938 271.303,40.338C271.829,40.739 272.397,41.045 273.009,41.256C273.622,41.468 274.266,41.574 274.944,41.574C275.416,41.574 275.902,41.522 276.402,41.419C276.903,41.317 277.411,41.156 277.926,40.935C278.442,40.714 278.962,40.435 279.488,40.096C280.012,39.757 280.536,39.352 281.058,38.879C281.108,38.905 281.166,38.936 281.231,38.973C281.295,39.01 281.356,39.052 281.413,39.099C281.468,39.145 281.516,39.197 281.557,39.252C281.597,39.308 281.618,39.365 281.618,39.42C281.618,39.457 281.592,39.51 281.542,39.579C280.934,40.249 280.319,40.812 279.697,41.266C279.076,41.719 278.452,42.086 277.824,42.366C277.196,42.645 276.564,42.846 275.927,42.967C275.29,43.088 274.655,43.149 274.021,43.149C273.182,43.149 272.381,43.032 271.621,42.799C270.859,42.566 270.153,42.232 269.5,41.797C268.847,41.362 268.257,40.835 267.729,40.217C267.201,39.599 266.75,38.905 266.377,38.134C266.004,37.364 265.717,36.526 265.515,35.622C265.313,34.717 265.212,33.762 265.212,32.756C265.212,31.786 265.31,30.812 265.505,29.833C265.702,28.855 265.994,27.918 266.382,27.024C266.77,26.128 267.258,25.292 267.845,24.516C268.433,23.74 269.118,23.063 269.901,22.488C270.684,21.914 271.566,21.463 272.548,21.137C273.53,20.811 274.611,20.647 275.792,20.647Z" style="fill:rgb(242,99,63);fill-rule:nonzero;"/>
    </g>
    <g transform="matrix(4.16667,0,0,4.16667,0.00152178,-3.38751)">
        <path d="M293.996,32.932C293.865,32.317 293.725,31.635 293.576,30.887C293.427,30.138 293.275,29.346 293.12,28.51C292.963,27.674 292.805,26.803 292.644,25.895C292.482,24.989 292.324,24.069 292.168,23.136L292.113,23.136C291.217,24.989 290.419,26.75 289.717,28.421C289.015,30.093 288.39,31.631 287.843,33.036C288.913,33.01 289.947,32.991 290.948,32.975C291.948,32.959 292.963,32.946 293.996,32.932ZM286.184,37.5C285.96,38.134 285.766,38.685 285.602,39.155C285.437,39.623 285.292,40.033 285.168,40.38C285.044,40.728 284.935,41.028 284.842,41.28C284.749,41.532 284.662,41.76 284.582,41.965C284.482,42.201 284.37,42.384 284.246,42.515C284.122,42.645 283.988,42.74 283.845,42.799C283.702,42.858 283.546,42.892 283.378,42.902C283.21,42.911 283.034,42.915 282.847,42.915C282.742,42.915 282.61,42.915 282.452,42.911C282.292,42.908 282.148,42.903 282.018,42.897L281.887,42.804C282.633,41.188 283.339,39.644 284.008,38.171C284.676,36.699 285.321,35.288 285.942,33.94C285.811,33.735 285.747,33.563 285.747,33.426C285.747,33.178 285.945,33.051 286.343,33.044C287.48,30.546 288.493,28.345 289.381,26.44C290.27,24.536 291.053,22.944 291.73,21.664C291.792,21.545 291.874,21.448 291.973,21.371C292.072,21.292 292.181,21.232 292.299,21.188C292.417,21.145 292.542,21.114 292.671,21.095C292.802,21.076 292.929,21.067 293.054,21.067C293.234,21.067 293.412,21.082 293.585,21.114C293.759,21.145 293.946,21.204 294.145,21.29C294.536,23.448 294.895,25.387 295.221,27.112C295.547,28.836 295.85,30.373 296.13,31.721C296.41,33.069 296.673,34.246 296.922,35.248C297.17,36.252 297.41,37.114 297.64,37.831C297.87,38.548 298.1,39.141 298.33,39.607C298.56,40.073 298.797,40.44 299.042,40.707C299.289,40.974 299.547,41.161 299.821,41.266C300.094,41.372 300.393,41.424 300.716,41.424C300.927,41.424 301.141,41.4 301.359,41.35C301.577,41.3 301.816,41.229 302.077,41.135L302.337,41.9C301.624,42.253 300.94,42.524 300.288,42.71C299.634,42.897 299.057,42.991 298.553,42.991C298.267,42.991 297.999,42.937 297.748,42.832C297.496,42.726 297.253,42.544 297.02,42.287C296.788,42.029 296.56,41.682 296.339,41.248C296.119,40.812 295.897,40.265 295.673,39.607C295.45,38.948 295.219,38.164 294.984,37.253C294.748,36.343 294.499,35.285 294.238,34.079C293.088,34.092 291.953,34.118 290.831,34.159C289.709,34.2 288.548,34.253 287.349,34.322C287.107,34.961 286.888,35.549 286.692,36.083C286.497,36.618 286.328,37.09 286.184,37.5Z" style="fill:rgb(242,99,63);fill-rule:nonzero;"/>
    </g>
    <g transform="matrix(4.16667,0,0,4.16667,0.00152178,-3.38751)">
        <path d="M130.66,58.704C130.322,58.964 129.892,59.145 129.371,59.247C128.852,59.348 128.298,59.399 127.71,59.399C126.998,59.399 126.331,59.278 125.708,59.035C125.087,58.791 124.544,58.421 124.081,57.924C123.617,57.426 123.25,56.79 122.979,56.016C122.707,55.242 122.571,54.323 122.571,53.26C122.571,52.152 122.721,51.211 123.021,50.436C123.32,49.663 123.716,49.029 124.208,48.537C124.7,48.045 125.251,47.686 125.861,47.46C126.472,47.234 127.094,47.121 127.727,47.121C128.405,47.121 128.959,47.158 129.389,47.231C129.817,47.305 130.186,47.404 130.491,47.528L130.151,48.783C129.608,48.511 128.835,48.375 127.829,48.375C127.365,48.375 126.907,48.46 126.455,48.63C126.002,48.8 125.599,49.077 125.242,49.461C124.886,49.846 124.601,50.349 124.386,50.97C124.171,51.592 124.063,52.356 124.063,53.26C124.063,54.074 124.166,54.787 124.369,55.397C124.572,56.007 124.853,56.516 125.208,56.923C125.564,57.331 125.983,57.635 126.463,57.839C126.944,58.042 127.467,58.144 128.032,58.144C128.541,58.144 128.983,58.093 129.363,57.992C129.742,57.89 130.062,57.76 130.322,57.602L130.66,58.704Z" style="fill:rgb(121,95,95);fill-rule:nonzero;"/>
    </g>
    <g transform="matrix(4.16667,0,0,4.16667,0.00152178,-3.38751)">
        <path d="M135.01,56.211L135.487,57.839L135.572,57.839L135.946,56.194L137.597,50.716L138.954,50.716L136.444,58.331C136.251,58.885 136.063,59.421 135.876,59.942C135.689,60.461 135.483,60.925 135.257,61.332C135.031,61.74 134.776,62.065 134.494,62.308C134.211,62.551 133.883,62.672 133.51,62.672C133.103,62.672 132.77,62.616 132.509,62.502L132.747,61.332C132.894,61.389 133.035,61.417 133.171,61.417C133.487,61.417 133.792,61.25 134.086,60.917C134.38,60.583 134.624,60.01 134.816,59.196L131.407,50.716L132.967,50.716L135.01,56.211Z" style="fill:rgb(121,95,95);fill-rule:nonzero;"/>
    </g>
    <g transform="matrix(4.16667,0,0,4.16667,0.00152178,-3.38751)">
        <path d="M145.076,58.008L145.076,51.904L142.532,51.904C142.51,52.378 142.47,52.895 142.414,53.456C142.357,54.015 142.281,54.575 142.185,55.134C142.088,55.694 141.967,56.222 141.82,56.72C141.673,57.217 141.503,57.647 141.311,58.008L145.076,58.008ZM147.671,61.35L146.755,61.35L146.501,59.196L140.124,59.196L139.87,61.35L138.954,61.35L138.954,58.008L139.955,58.008C140.045,57.884 140.164,57.661 140.311,57.338C140.458,57.016 140.602,56.565 140.743,55.982C140.884,55.4 141.009,54.676 141.116,53.811C141.224,52.947 141.289,51.915 141.311,50.716L146.433,50.716L146.433,58.008L147.671,58.008L147.671,61.35Z" style="fill:rgb(121,95,95);fill-rule:nonzero;"/>
    </g>
    <g transform="matrix(4.16667,0,0,4.16667,0.00152178,-3.38751)">
        <path d="M150.282,54.956C150.282,55.386 150.324,55.798 150.409,56.194C150.494,56.59 150.627,56.935 150.808,57.229C150.988,57.523 151.226,57.76 151.52,57.941C151.814,58.122 152.17,58.212 152.588,58.212C154.126,58.223 154.895,57.138 154.895,54.956C154.895,54.515 154.853,54.097 154.768,53.701C154.683,53.305 154.55,52.96 154.369,52.666C154.188,52.373 153.951,52.138 153.657,51.962C153.363,51.788 153.007,51.7 152.588,51.7C151.051,51.689 150.282,52.774 150.282,54.956ZM148.875,54.956C148.875,53.52 149.194,52.42 149.833,51.658C150.471,50.894 151.39,50.513 152.588,50.513C153.222,50.513 153.773,50.618 154.242,50.827C154.711,51.036 155.099,51.335 155.404,51.725C155.709,52.116 155.935,52.584 156.082,53.133C156.229,53.681 156.303,54.289 156.303,54.956C156.303,56.392 155.983,57.492 155.344,58.254C154.706,59.018 153.787,59.399 152.588,59.399C151.955,59.399 151.404,59.294 150.935,59.085C150.466,58.876 150.079,58.577 149.773,58.187C149.468,57.796 149.242,57.328 149.095,56.779C148.948,56.231 148.875,55.623 148.875,54.956Z" style="fill:rgb(121,95,95);fill-rule:nonzero;"/>
    </g>
    <g transform="matrix(4.16667,0,0,4.16667,0.00152178,-3.38751)">
        <path d="M160.288,54.854L157.439,50.716L159.101,50.716L160.712,53.056L161.187,54.023L161.679,53.056L163.324,50.716L164.85,50.716L161.984,54.787L165.02,59.196L163.409,59.196L161.611,56.618L161.102,55.6L160.577,56.618L158.745,59.196L157.236,59.196L160.288,54.854Z" style="fill:rgb(121,95,95);fill-rule:nonzero;"/>
    </g>
    <g transform="matrix(4.16667,0,0,4.16667,0.00152178,-3.38751)">
        <path d="M167.361,54.956C167.361,55.386 167.403,55.798 167.488,56.194C167.573,56.59 167.706,56.935 167.886,57.229C168.067,57.523 168.304,57.76 168.598,57.941C168.892,58.122 169.249,58.212 169.667,58.212C171.205,58.223 171.973,57.138 171.973,54.956C171.973,54.515 171.931,54.097 171.846,53.701C171.761,53.305 171.628,52.96 171.448,52.666C171.267,52.373 171.029,52.138 170.735,51.962C170.441,51.788 170.085,51.7 169.667,51.7C168.129,51.689 167.361,52.774 167.361,54.956ZM165.953,54.956C165.953,53.52 166.272,52.42 166.911,51.658C167.549,50.894 168.468,50.513 169.667,50.513C170.3,50.513 170.851,50.618 171.321,50.827C171.79,51.036 172.177,51.335 172.482,51.725C172.788,52.116 173.013,52.584 173.161,53.133C173.307,53.681 173.381,54.289 173.381,54.956C173.381,56.392 173.061,57.492 172.422,58.254C171.784,59.018 170.865,59.399 169.667,59.399C169.034,59.399 168.482,59.294 168.013,59.085C167.544,58.876 167.157,58.577 166.852,58.187C166.546,57.796 166.32,57.328 166.173,56.779C166.026,56.231 165.953,55.623 165.953,54.956Z" style="fill:rgb(121,95,95);fill-rule:nonzero;"/>
    </g>
    <g transform="matrix(4.16667,0,0,4.16667,0.00152178,-3.38751)">
        <path d="M180.317,58.008L180.317,51.904L177.773,51.904C177.75,52.378 177.711,52.895 177.655,53.456C177.598,54.015 177.522,54.575 177.425,55.134C177.33,55.694 177.208,56.222 177.061,56.72C176.914,57.217 176.745,57.647 176.552,58.008L180.317,58.008ZM182.912,61.35L181.997,61.35L181.742,59.196L175.365,59.196L175.111,61.35L174.195,61.35L174.195,58.008L175.196,58.008C175.286,57.884 175.405,57.661 175.551,57.338C175.699,57.016 175.842,56.565 175.984,55.982C176.125,55.4 176.25,54.676 176.357,53.811C176.464,52.947 176.53,51.915 176.552,50.716L181.674,50.716L181.674,58.008L182.912,58.008L182.912,61.35Z" style="fill:rgb(121,95,95);fill-rule:nonzero;"/>
    </g>
    <g transform="matrix(4.16667,0,0,4.16667,0.00152178,-3.38751)">
        <path d="M189.78,55.448L185.947,55.448L185.947,59.196L184.59,59.196L184.59,50.716L185.947,50.716L185.947,54.26L189.78,54.26L189.78,50.716L191.137,50.716L191.137,59.196L189.78,59.196L189.78,55.448Z" style="fill:rgb(121,95,95);fill-rule:nonzero;"/>
    </g>
    <g transform="matrix(4.16667,0,0,4.16667,0.00152178,-3.38751)">
        <path d="M196.02,58.144C196.336,58.144 196.62,58.102 196.869,58.017C197.117,57.932 197.332,57.825 197.512,57.695C197.694,57.565 197.843,57.421 197.962,57.262C198.081,57.104 198.168,56.952 198.225,56.804L198.225,55.397C198.067,55.386 197.906,55.377 197.742,55.372C197.578,55.366 197.417,55.363 197.258,55.363C196.908,55.363 196.566,55.383 196.232,55.422C195.899,55.462 195.605,55.536 195.35,55.643C195.096,55.75 194.892,55.897 194.74,56.083C194.587,56.27 194.511,56.505 194.511,56.788C194.511,57.183 194.652,57.508 194.935,57.763C195.217,58.017 195.58,58.144 196.02,58.144ZM193.612,51.343C194.042,51.083 194.542,50.892 195.113,50.767C195.684,50.643 196.28,50.581 196.902,50.581C197.49,50.581 197.962,50.66 198.318,50.818C198.674,50.976 198.946,51.182 199.132,51.437C199.319,51.691 199.443,51.971 199.505,52.277C199.568,52.582 199.599,52.887 199.599,53.192C199.599,53.871 199.582,54.532 199.547,55.176C199.514,55.821 199.497,56.431 199.497,57.008C199.497,57.426 199.514,57.822 199.547,58.195C199.582,58.568 199.644,58.914 199.734,59.23L198.734,59.23L198.377,58.042L198.292,58.042C198.191,58.201 198.064,58.356 197.912,58.509C197.758,58.662 197.575,58.797 197.36,58.915C197.145,59.035 196.896,59.134 196.614,59.212C196.332,59.291 196.009,59.332 195.647,59.332C195.286,59.332 194.949,59.275 194.638,59.162C194.327,59.049 194.058,58.888 193.833,58.678C193.606,58.469 193.428,58.218 193.298,57.924C193.168,57.63 193.103,57.296 193.103,56.923C193.103,56.426 193.205,56.01 193.409,55.677C193.612,55.343 193.898,55.078 194.265,54.879C194.632,54.682 195.073,54.54 195.587,54.456C196.102,54.371 196.67,54.329 197.292,54.329C197.451,54.329 197.606,54.329 197.758,54.329C197.912,54.329 198.067,54.34 198.225,54.363C198.259,54.023 198.276,53.718 198.276,53.447C198.276,52.825 198.151,52.389 197.903,52.141C197.654,51.892 197.202,51.768 196.546,51.768C196.354,51.768 196.148,51.783 195.927,51.811C195.707,51.84 195.48,51.881 195.249,51.933C195.017,51.986 194.796,52.05 194.587,52.125C194.377,52.201 194.194,52.286 194.036,52.378L193.612,51.343Z" style="fill:rgb(121,95,95);fill-rule:nonzero;"/>
    </g>
    <g transform="matrix(4.16667,0,0,4.16667,0.00152178,-3.38751)">
        <path d="M206.382,51.87C206.236,51.813 206.072,51.771 205.891,51.743C205.709,51.714 205.551,51.7 205.416,51.7C204.692,51.7 204.141,51.83 203.762,52.09C203.383,52.35 203.195,52.763 203.195,53.328C203.195,53.836 203.395,54.23 203.796,54.506C204.198,54.784 204.726,54.922 205.382,54.922L205.569,54.922C205.636,54.922 205.732,54.919 205.857,54.914C205.981,54.908 206.157,54.9 206.382,54.888L206.382,51.87ZM206.382,55.685L205.077,55.889L202.838,59.196L201.193,59.196L203.228,56.295L203.907,55.668C203.319,55.578 202.818,55.34 202.406,54.956C201.993,54.572 201.787,54.051 201.787,53.396C201.787,52.887 201.875,52.452 202.049,52.09C202.225,51.728 202.476,51.428 202.804,51.191C203.132,50.954 203.522,50.782 203.974,50.674C204.426,50.567 204.935,50.513 205.5,50.513C205.919,50.513 206.309,50.541 206.671,50.597C207.033,50.654 207.389,50.716 207.74,50.784L207.74,59.196L206.382,59.196L206.382,55.685Z" style="fill:rgb(121,95,95);fill-rule:nonzero;"/>
    </g>
    <g transform="matrix(4.16667,0,0,4.16667,0.00152178,-3.38751)">
        <path d="M216.879,55.38L216.099,55.38L216.099,59.196L214.743,59.196L214.743,50.716L216.099,50.716L216.099,54.549L216.829,54.312L219.542,50.716L221.018,50.716L218.389,54.125L217.677,54.685L218.559,55.363L221.391,59.196L219.711,59.196L216.879,55.38Z" style="fill:rgb(121,95,95);fill-rule:nonzero;"/>
    </g>
    <g transform="matrix(4.16667,0,0,4.16667,0.00152178,-3.38751)">
        <path d="M223.595,54.956C223.595,55.386 223.638,55.798 223.723,56.194C223.807,56.59 223.94,56.935 224.122,57.229C224.302,57.523 224.54,57.76 224.833,57.941C225.127,58.122 225.484,58.212 225.902,58.212C227.439,58.223 228.208,57.138 228.208,54.956C228.208,54.515 228.167,54.097 228.082,53.701C227.997,53.305 227.864,52.96 227.683,52.666C227.501,52.373 227.264,52.138 226.97,51.962C226.676,51.788 226.32,51.7 225.902,51.7C224.365,51.689 223.595,52.774 223.595,54.956ZM222.188,54.956C222.188,53.52 222.507,52.42 223.146,51.658C223.785,50.894 224.704,50.513 225.902,50.513C226.535,50.513 227.086,50.618 227.555,50.827C228.025,51.036 228.412,51.335 228.717,51.725C229.023,52.116 229.249,52.584 229.396,53.133C229.542,53.681 229.616,54.289 229.616,54.956C229.616,56.392 229.296,57.492 228.658,58.254C228.019,59.018 227.1,59.399 225.902,59.399C225.269,59.399 224.717,59.294 224.249,59.085C223.779,58.876 223.392,58.577 223.086,58.187C222.782,57.796 222.555,57.328 222.409,56.779C222.261,56.231 222.188,55.623 222.188,54.956Z" style="fill:rgb(121,95,95);fill-rule:nonzero;"/>
    </g>
    <g transform="matrix(4.16667,0,0,4.16667,0.00152178,-3.38751)">
        <path d="M238.757,54.159L238.86,52.547L238.775,52.547L238.165,53.854L236.112,57.177L235.637,57.177L233.5,53.854L232.941,52.547L232.873,52.547L233.008,54.142L233.008,59.196L231.753,59.196L231.753,50.716L233.093,50.716L235.467,54.515L235.959,55.498L235.994,55.498L236.502,54.481L238.724,50.716L240.081,50.716L240.081,59.196L238.757,59.196L238.757,54.159Z" style="fill:rgb(121,95,95);fill-rule:nonzero;"/>
    </g>
    <g transform="matrix(4.16667,0,0,4.16667,0.00152178,-3.38751)">
        <path d="M247.796,51.904L244.048,51.904L244.048,59.196L242.692,59.196L242.692,50.716L249.154,50.716L249.154,59.196L247.796,59.196L247.796,51.904Z" style="fill:rgb(121,95,95);fill-rule:nonzero;"/>
    </g>
    <g transform="matrix(4.16667,0,0,4.16667,0.00152178,-3.38751)">
        <path d="M254.037,58.144C254.353,58.144 254.636,58.102 254.885,58.017C255.133,57.932 255.348,57.825 255.529,57.695C255.71,57.565 255.86,57.421 255.979,57.262C256.096,57.104 256.185,56.952 256.242,56.804L256.242,55.397C256.083,55.386 255.922,55.377 255.758,55.372C255.594,55.366 255.433,55.363 255.275,55.363C254.924,55.363 254.583,55.383 254.249,55.422C253.916,55.462 253.622,55.536 253.367,55.643C253.113,55.75 252.909,55.897 252.756,56.083C252.604,56.27 252.528,56.505 252.528,56.788C252.528,57.183 252.668,57.508 252.952,57.763C253.234,58.017 253.596,58.144 254.037,58.144ZM251.628,51.343C252.058,51.083 252.558,50.892 253.129,50.767C253.701,50.643 254.296,50.581 254.918,50.581C255.506,50.581 255.979,50.66 256.334,50.818C256.691,50.976 256.962,51.182 257.148,51.437C257.334,51.691 257.459,51.971 257.522,52.277C257.584,52.582 257.616,52.887 257.616,53.192C257.616,53.871 257.597,54.532 257.564,55.176C257.531,55.821 257.513,56.431 257.513,57.008C257.513,57.426 257.531,57.822 257.564,58.195C257.597,58.568 257.661,58.914 257.75,59.23L256.75,59.23L256.394,58.042L256.308,58.042C256.208,58.201 256.081,58.356 255.928,58.509C255.775,58.662 255.591,58.797 255.376,58.915C255.162,59.035 254.913,59.134 254.63,59.212C254.348,59.291 254.026,59.332 253.664,59.332C253.302,59.332 252.965,59.275 252.655,59.162C252.343,59.049 252.075,58.888 251.849,58.678C251.623,58.469 251.445,58.218 251.315,57.924C251.185,57.63 251.12,57.296 251.12,56.923C251.12,56.426 251.221,56.01 251.425,55.677C251.628,55.343 251.915,55.078 252.282,54.879C252.649,54.682 253.089,54.54 253.604,54.456C254.119,54.371 254.687,54.329 255.309,54.329C255.467,54.329 255.623,54.329 255.775,54.329C255.928,54.329 256.083,54.34 256.242,54.363C256.276,54.023 256.292,53.718 256.292,53.447C256.292,52.825 256.167,52.389 255.919,52.141C255.67,51.892 255.218,51.768 254.563,51.768C254.371,51.768 254.165,51.783 253.944,51.811C253.723,51.84 253.497,51.881 253.265,51.933C253.034,51.986 252.813,52.05 252.604,52.125C252.394,52.201 252.21,52.286 252.052,52.378L251.628,51.343Z" style="fill:rgb(121,95,95);fill-rule:nonzero;"/>
    </g>
    <g transform="matrix(4.16667,0,0,4.16667,0.00152178,-3.38751)">
        <path d="M265.366,55.448L261.532,55.448L261.532,59.196L260.176,59.196L260.176,50.716L261.532,50.716L261.532,54.26L265.366,54.26L265.366,50.716L266.723,50.716L266.723,59.196L265.366,59.196L265.366,55.448Z" style="fill:rgb(121,95,95);fill-rule:nonzero;"/>
    </g>
    <g transform="matrix(4.16667,0,0,4.16667,0.00152178,-3.38751)">
        <path d="M274.625,54.176L274.676,53.124L274.625,53.124L273.929,54.209L270.114,59.196L269.333,59.196L269.333,50.716L270.69,50.716L270.69,55.889L270.639,56.889L270.708,56.889L271.369,55.837L275.185,50.716L275.982,50.716L275.982,59.196L274.625,59.196L274.625,54.176Z" style="fill:rgb(121,95,95);fill-rule:nonzero;"/>
    </g>
    <g transform="matrix(4.16667,0,0,4.16667,0.00152178,-3.38751)">
        <path d="M282.816,51.87C282.669,51.813 282.505,51.771 282.325,51.743C282.143,51.714 281.985,51.7 281.849,51.7C281.125,51.7 280.575,51.83 280.196,52.09C279.817,52.35 279.628,52.763 279.628,53.328C279.628,53.836 279.829,54.23 280.23,54.506C280.631,54.784 281.16,54.922 281.816,54.922L282.002,54.922C282.07,54.922 282.166,54.919 282.291,54.914C282.415,54.908 282.59,54.9 282.816,54.888L282.816,51.87ZM282.816,55.685L281.51,55.889L279.272,59.196L277.626,59.196L279.662,56.295L280.34,55.668C279.752,55.578 279.251,55.34 278.839,54.956C278.426,54.572 278.22,54.051 278.22,53.396C278.22,52.887 278.308,52.452 278.483,52.09C278.659,51.728 278.91,51.428 279.238,51.191C279.566,50.954 279.956,50.782 280.408,50.674C280.86,50.567 281.369,50.513 281.934,50.513C282.353,50.513 282.743,50.541 283.105,50.597C283.466,50.654 283.823,50.716 284.173,50.784L284.173,59.196L282.816,59.196L282.816,55.685Z" style="fill:rgb(121,95,95);fill-rule:nonzero;"/>
    </g>
</svg>
